<mxfile host="app.diagrams.net" modified="2023-12-17T13:31:39.167Z" agent="Mozilla/5.0 (Windows NT 10.0; Win64; x64) AppleWebKit/537.36 (KHTML, like Gecko) Chrome/120.0.0.0 Safari/537.36" etag="xv1D0oqc3QO9DdJ_G8re" version="22.1.11" type="device">
  <diagram name="Page-1" id="ZTXD9lZ7I0eTyCHUqf8V">
    <mxGraphModel dx="1050" dy="530" grid="1" gridSize="10" guides="1" tooltips="1" connect="1" arrows="1" fold="1" page="1" pageScale="1" pageWidth="850" pageHeight="1100" math="0" shadow="0">
      <root>
        <mxCell id="0" />
        <mxCell id="1" parent="0" />
        <mxCell id="fO0kzI02oXGOi7vqgEmv-4" value="" style="edgeStyle=orthogonalEdgeStyle;rounded=0;orthogonalLoop=1;jettySize=auto;html=1;" edge="1" parent="1" source="fO0kzI02oXGOi7vqgEmv-1" target="fO0kzI02oXGOi7vqgEmv-3">
          <mxGeometry relative="1" as="geometry" />
        </mxCell>
        <mxCell id="fO0kzI02oXGOi7vqgEmv-1" value="Старт" style="ellipse;whiteSpace=wrap;html=1;" vertex="1" parent="1">
          <mxGeometry x="175" y="100" width="90" height="30" as="geometry" />
        </mxCell>
        <mxCell id="fO0kzI02oXGOi7vqgEmv-2" value="&lt;font style=&quot;font-size: 20px;&quot;&gt;Задача №1. Нахождение индексов максимального и минимального элементов массива&lt;/font&gt;" style="text;html=1;strokeColor=none;fillColor=none;align=center;verticalAlign=middle;whiteSpace=wrap;rounded=0;" vertex="1" parent="1">
          <mxGeometry x="265" y="100" width="530" height="30" as="geometry" />
        </mxCell>
        <mxCell id="fO0kzI02oXGOi7vqgEmv-6" value="" style="edgeStyle=orthogonalEdgeStyle;rounded=0;orthogonalLoop=1;jettySize=auto;html=1;" edge="1" parent="1" source="fO0kzI02oXGOi7vqgEmv-3" target="fO0kzI02oXGOi7vqgEmv-5">
          <mxGeometry relative="1" as="geometry" />
        </mxCell>
        <mxCell id="fO0kzI02oXGOi7vqgEmv-3" value="a = [1, 6, 3, 8, 0]&lt;br&gt;N = len(a)&lt;br&gt;i = 0&lt;br&gt;j = 0&lt;br&gt;max = 0&lt;br&gt;min = 0" style="shape=parallelogram;perimeter=parallelogramPerimeter;whiteSpace=wrap;html=1;fixedSize=1;" vertex="1" parent="1">
          <mxGeometry x="150" y="160" width="140" height="100" as="geometry" />
        </mxCell>
        <mxCell id="fO0kzI02oXGOi7vqgEmv-8" value="YES" style="edgeStyle=orthogonalEdgeStyle;rounded=0;orthogonalLoop=1;jettySize=auto;html=1;" edge="1" parent="1" source="fO0kzI02oXGOi7vqgEmv-5" target="fO0kzI02oXGOi7vqgEmv-7">
          <mxGeometry x="0.2" y="20" relative="1" as="geometry">
            <mxPoint as="offset" />
          </mxGeometry>
        </mxCell>
        <mxCell id="fO0kzI02oXGOi7vqgEmv-10" value="" style="edgeStyle=orthogonalEdgeStyle;rounded=0;orthogonalLoop=1;jettySize=auto;html=1;" edge="1" parent="1" source="fO0kzI02oXGOi7vqgEmv-5" target="fO0kzI02oXGOi7vqgEmv-9">
          <mxGeometry relative="1" as="geometry" />
        </mxCell>
        <mxCell id="fO0kzI02oXGOi7vqgEmv-20" value="NO" style="edgeLabel;html=1;align=center;verticalAlign=middle;resizable=0;points=[];" vertex="1" connectable="0" parent="fO0kzI02oXGOi7vqgEmv-10">
          <mxGeometry x="0.0333" y="1" relative="1" as="geometry">
            <mxPoint as="offset" />
          </mxGeometry>
        </mxCell>
        <mxCell id="fO0kzI02oXGOi7vqgEmv-5" value="i &amp;lt; N" style="rhombus;whiteSpace=wrap;html=1;" vertex="1" parent="1">
          <mxGeometry x="180" y="290" width="80" height="80" as="geometry" />
        </mxCell>
        <mxCell id="fO0kzI02oXGOi7vqgEmv-14" value="" style="edgeStyle=orthogonalEdgeStyle;rounded=0;orthogonalLoop=1;jettySize=auto;html=1;" edge="1" parent="1" source="fO0kzI02oXGOi7vqgEmv-7" target="fO0kzI02oXGOi7vqgEmv-13">
          <mxGeometry relative="1" as="geometry" />
        </mxCell>
        <mxCell id="fO0kzI02oXGOi7vqgEmv-23" value="YES" style="edgeLabel;html=1;align=center;verticalAlign=middle;resizable=0;points=[];" vertex="1" connectable="0" parent="fO0kzI02oXGOi7vqgEmv-14">
          <mxGeometry x="0.2286" y="-1" relative="1" as="geometry">
            <mxPoint as="offset" />
          </mxGeometry>
        </mxCell>
        <mxCell id="fO0kzI02oXGOi7vqgEmv-16" value="" style="edgeStyle=orthogonalEdgeStyle;rounded=0;orthogonalLoop=1;jettySize=auto;html=1;exitX=1;exitY=0.5;exitDx=0;exitDy=0;" edge="1" parent="1" source="fO0kzI02oXGOi7vqgEmv-7" target="fO0kzI02oXGOi7vqgEmv-15">
          <mxGeometry relative="1" as="geometry">
            <mxPoint x="272.5" y="430.0000000000001" as="sourcePoint" />
            <mxPoint x="290" y="570" as="targetPoint" />
            <Array as="points">
              <mxPoint x="330" y="440" />
              <mxPoint x="330" y="570" />
            </Array>
          </mxGeometry>
        </mxCell>
        <mxCell id="fO0kzI02oXGOi7vqgEmv-18" value="NO" style="edgeLabel;html=1;align=center;verticalAlign=middle;resizable=0;points=[];" vertex="1" connectable="0" parent="fO0kzI02oXGOi7vqgEmv-16">
          <mxGeometry x="-0.4276" y="-2" relative="1" as="geometry">
            <mxPoint as="offset" />
          </mxGeometry>
        </mxCell>
        <mxCell id="fO0kzI02oXGOi7vqgEmv-7" value="a[i] &amp;gt; a[max]" style="rhombus;whiteSpace=wrap;html=1;" vertex="1" parent="1">
          <mxGeometry x="165" y="400" width="110" height="80" as="geometry" />
        </mxCell>
        <mxCell id="fO0kzI02oXGOi7vqgEmv-41" value="" style="edgeStyle=orthogonalEdgeStyle;rounded=0;orthogonalLoop=1;jettySize=auto;html=1;entryX=0.5;entryY=0;entryDx=0;entryDy=0;" edge="1" parent="1" source="fO0kzI02oXGOi7vqgEmv-9" target="fO0kzI02oXGOi7vqgEmv-30">
          <mxGeometry relative="1" as="geometry">
            <Array as="points">
              <mxPoint x="550" y="300" />
            </Array>
          </mxGeometry>
        </mxCell>
        <mxCell id="fO0kzI02oXGOi7vqgEmv-9" value="&quot;Индекс максимального элемента массива равен&quot; max" style="shape=document;whiteSpace=wrap;html=1;boundedLbl=1;" vertex="1" parent="1">
          <mxGeometry x="320" y="285" width="120" height="90" as="geometry" />
        </mxCell>
        <mxCell id="fO0kzI02oXGOi7vqgEmv-17" value="" style="edgeStyle=orthogonalEdgeStyle;rounded=0;orthogonalLoop=1;jettySize=auto;html=1;" edge="1" parent="1" source="fO0kzI02oXGOi7vqgEmv-13" target="fO0kzI02oXGOi7vqgEmv-15">
          <mxGeometry relative="1" as="geometry" />
        </mxCell>
        <mxCell id="fO0kzI02oXGOi7vqgEmv-13" value="max = i" style="whiteSpace=wrap;html=1;" vertex="1" parent="1">
          <mxGeometry x="160" y="510" width="120" height="30" as="geometry" />
        </mxCell>
        <mxCell id="fO0kzI02oXGOi7vqgEmv-15" value="i = i + 1" style="whiteSpace=wrap;html=1;" vertex="1" parent="1">
          <mxGeometry x="160" y="560" width="120" height="30" as="geometry" />
        </mxCell>
        <mxCell id="fO0kzI02oXGOi7vqgEmv-26" value="" style="edgeStyle=orthogonalEdgeStyle;rounded=0;orthogonalLoop=1;jettySize=auto;html=1;exitX=0;exitY=0.5;exitDx=0;exitDy=0;entryX=0;entryY=0.5;entryDx=0;entryDy=0;" edge="1" parent="1" source="fO0kzI02oXGOi7vqgEmv-15" target="fO0kzI02oXGOi7vqgEmv-5">
          <mxGeometry relative="1" as="geometry">
            <mxPoint x="100" y="640" as="sourcePoint" />
            <Array as="points">
              <mxPoint x="130" y="575" />
              <mxPoint x="130" y="330" />
            </Array>
          </mxGeometry>
        </mxCell>
        <mxCell id="fO0kzI02oXGOi7vqgEmv-27" value="YES" style="edgeStyle=orthogonalEdgeStyle;rounded=0;orthogonalLoop=1;jettySize=auto;html=1;" edge="1" parent="1" source="fO0kzI02oXGOi7vqgEmv-30" target="fO0kzI02oXGOi7vqgEmv-35">
          <mxGeometry x="0.2" y="20" relative="1" as="geometry">
            <mxPoint as="offset" />
          </mxGeometry>
        </mxCell>
        <mxCell id="fO0kzI02oXGOi7vqgEmv-28" value="" style="edgeStyle=orthogonalEdgeStyle;rounded=0;orthogonalLoop=1;jettySize=auto;html=1;" edge="1" parent="1" source="fO0kzI02oXGOi7vqgEmv-30" target="fO0kzI02oXGOi7vqgEmv-36">
          <mxGeometry relative="1" as="geometry" />
        </mxCell>
        <mxCell id="fO0kzI02oXGOi7vqgEmv-29" value="NO" style="edgeLabel;html=1;align=center;verticalAlign=middle;resizable=0;points=[];" vertex="1" connectable="0" parent="fO0kzI02oXGOi7vqgEmv-28">
          <mxGeometry x="0.0333" y="1" relative="1" as="geometry">
            <mxPoint as="offset" />
          </mxGeometry>
        </mxCell>
        <mxCell id="fO0kzI02oXGOi7vqgEmv-30" value="j &amp;lt; N" style="rhombus;whiteSpace=wrap;html=1;" vertex="1" parent="1">
          <mxGeometry x="510" y="335" width="80" height="80" as="geometry" />
        </mxCell>
        <mxCell id="fO0kzI02oXGOi7vqgEmv-31" value="" style="edgeStyle=orthogonalEdgeStyle;rounded=0;orthogonalLoop=1;jettySize=auto;html=1;" edge="1" parent="1" source="fO0kzI02oXGOi7vqgEmv-35" target="fO0kzI02oXGOi7vqgEmv-38">
          <mxGeometry relative="1" as="geometry" />
        </mxCell>
        <mxCell id="fO0kzI02oXGOi7vqgEmv-32" value="YES" style="edgeLabel;html=1;align=center;verticalAlign=middle;resizable=0;points=[];" vertex="1" connectable="0" parent="fO0kzI02oXGOi7vqgEmv-31">
          <mxGeometry x="0.2286" y="-1" relative="1" as="geometry">
            <mxPoint as="offset" />
          </mxGeometry>
        </mxCell>
        <mxCell id="fO0kzI02oXGOi7vqgEmv-33" value="" style="edgeStyle=orthogonalEdgeStyle;rounded=0;orthogonalLoop=1;jettySize=auto;html=1;exitX=1;exitY=0.5;exitDx=0;exitDy=0;" edge="1" parent="1" source="fO0kzI02oXGOi7vqgEmv-35" target="fO0kzI02oXGOi7vqgEmv-39">
          <mxGeometry relative="1" as="geometry">
            <mxPoint x="602.5" y="475.0000000000001" as="sourcePoint" />
            <mxPoint x="620" y="615" as="targetPoint" />
            <Array as="points">
              <mxPoint x="660" y="485" />
              <mxPoint x="660" y="615" />
            </Array>
          </mxGeometry>
        </mxCell>
        <mxCell id="fO0kzI02oXGOi7vqgEmv-34" value="NO" style="edgeLabel;html=1;align=center;verticalAlign=middle;resizable=0;points=[];" vertex="1" connectable="0" parent="fO0kzI02oXGOi7vqgEmv-33">
          <mxGeometry x="-0.4276" y="-2" relative="1" as="geometry">
            <mxPoint as="offset" />
          </mxGeometry>
        </mxCell>
        <mxCell id="fO0kzI02oXGOi7vqgEmv-35" value="a[j] &amp;lt; a[min]" style="rhombus;whiteSpace=wrap;html=1;" vertex="1" parent="1">
          <mxGeometry x="495" y="445" width="110" height="80" as="geometry" />
        </mxCell>
        <mxCell id="fO0kzI02oXGOi7vqgEmv-36" value="&quot;Индекс минимального элемента массива равен&quot; min" style="shape=document;whiteSpace=wrap;html=1;boundedLbl=1;" vertex="1" parent="1">
          <mxGeometry x="650" y="330" width="120" height="90" as="geometry" />
        </mxCell>
        <mxCell id="fO0kzI02oXGOi7vqgEmv-37" value="" style="edgeStyle=orthogonalEdgeStyle;rounded=0;orthogonalLoop=1;jettySize=auto;html=1;" edge="1" parent="1" source="fO0kzI02oXGOi7vqgEmv-38" target="fO0kzI02oXGOi7vqgEmv-39">
          <mxGeometry relative="1" as="geometry" />
        </mxCell>
        <mxCell id="fO0kzI02oXGOi7vqgEmv-38" value="min = j" style="whiteSpace=wrap;html=1;" vertex="1" parent="1">
          <mxGeometry x="490" y="555" width="120" height="30" as="geometry" />
        </mxCell>
        <mxCell id="fO0kzI02oXGOi7vqgEmv-39" value="j = j + 1" style="whiteSpace=wrap;html=1;" vertex="1" parent="1">
          <mxGeometry x="490" y="605" width="120" height="30" as="geometry" />
        </mxCell>
        <mxCell id="fO0kzI02oXGOi7vqgEmv-40" value="" style="edgeStyle=orthogonalEdgeStyle;rounded=0;orthogonalLoop=1;jettySize=auto;html=1;exitX=0;exitY=0.5;exitDx=0;exitDy=0;entryX=0;entryY=0.5;entryDx=0;entryDy=0;" edge="1" parent="1" source="fO0kzI02oXGOi7vqgEmv-39" target="fO0kzI02oXGOi7vqgEmv-30">
          <mxGeometry relative="1" as="geometry">
            <mxPoint x="430" y="685" as="sourcePoint" />
            <Array as="points">
              <mxPoint x="460" y="620" />
              <mxPoint x="460" y="375" />
            </Array>
          </mxGeometry>
        </mxCell>
        <mxCell id="fO0kzI02oXGOi7vqgEmv-42" value="" style="edgeStyle=orthogonalEdgeStyle;rounded=0;orthogonalLoop=1;jettySize=auto;html=1;" edge="1" parent="1" source="fO0kzI02oXGOi7vqgEmv-43" target="fO0kzI02oXGOi7vqgEmv-46">
          <mxGeometry relative="1" as="geometry" />
        </mxCell>
        <mxCell id="fO0kzI02oXGOi7vqgEmv-43" value="Старт" style="ellipse;whiteSpace=wrap;html=1;" vertex="1" parent="1">
          <mxGeometry x="155" y="780" width="90" height="30" as="geometry" />
        </mxCell>
        <mxCell id="fO0kzI02oXGOi7vqgEmv-44" value="&lt;font style=&quot;font-size: 20px;&quot;&gt;Задача №2. Перевернуть массив и записать его в обратном порядке&lt;/font&gt;" style="text;html=1;strokeColor=none;fillColor=none;align=center;verticalAlign=middle;whiteSpace=wrap;rounded=0;" vertex="1" parent="1">
          <mxGeometry x="245" y="780" width="530" height="30" as="geometry" />
        </mxCell>
        <mxCell id="fO0kzI02oXGOi7vqgEmv-45" value="" style="edgeStyle=orthogonalEdgeStyle;rounded=0;orthogonalLoop=1;jettySize=auto;html=1;" edge="1" parent="1" source="fO0kzI02oXGOi7vqgEmv-46" target="fO0kzI02oXGOi7vqgEmv-50">
          <mxGeometry relative="1" as="geometry" />
        </mxCell>
        <mxCell id="fO0kzI02oXGOi7vqgEmv-46" value="a = [1, 4, 5, 2, 12]&lt;br&gt;N = len(a)&lt;br&gt;i = 0" style="shape=parallelogram;perimeter=parallelogramPerimeter;whiteSpace=wrap;html=1;fixedSize=1;" vertex="1" parent="1">
          <mxGeometry x="130" y="830" width="140" height="50" as="geometry" />
        </mxCell>
        <mxCell id="fO0kzI02oXGOi7vqgEmv-47" value="YES" style="edgeStyle=orthogonalEdgeStyle;rounded=0;orthogonalLoop=1;jettySize=auto;html=1;" edge="1" parent="1" source="fO0kzI02oXGOi7vqgEmv-50">
          <mxGeometry x="0.2" y="20" relative="1" as="geometry">
            <mxPoint as="offset" />
            <mxPoint x="200" y="1020" as="targetPoint" />
          </mxGeometry>
        </mxCell>
        <mxCell id="fO0kzI02oXGOi7vqgEmv-48" value="" style="edgeStyle=orthogonalEdgeStyle;rounded=0;orthogonalLoop=1;jettySize=auto;html=1;" edge="1" parent="1" source="fO0kzI02oXGOi7vqgEmv-50" target="fO0kzI02oXGOi7vqgEmv-57">
          <mxGeometry relative="1" as="geometry" />
        </mxCell>
        <mxCell id="fO0kzI02oXGOi7vqgEmv-49" value="NO" style="edgeLabel;html=1;align=center;verticalAlign=middle;resizable=0;points=[];" vertex="1" connectable="0" parent="fO0kzI02oXGOi7vqgEmv-48">
          <mxGeometry x="0.0333" y="1" relative="1" as="geometry">
            <mxPoint as="offset" />
          </mxGeometry>
        </mxCell>
        <mxCell id="fO0kzI02oXGOi7vqgEmv-50" value="i &amp;lt; (N-1)/2" style="rhombus;whiteSpace=wrap;html=1;" vertex="1" parent="1">
          <mxGeometry x="160" y="910" width="80" height="80" as="geometry" />
        </mxCell>
        <mxCell id="fO0kzI02oXGOi7vqgEmv-57" value="a" style="shape=document;whiteSpace=wrap;html=1;boundedLbl=1;" vertex="1" parent="1">
          <mxGeometry x="300" y="922.5" width="60" height="55" as="geometry" />
        </mxCell>
        <mxCell id="fO0kzI02oXGOi7vqgEmv-58" value="" style="edgeStyle=orthogonalEdgeStyle;rounded=0;orthogonalLoop=1;jettySize=auto;html=1;" edge="1" parent="1" source="fO0kzI02oXGOi7vqgEmv-59" target="fO0kzI02oXGOi7vqgEmv-60">
          <mxGeometry relative="1" as="geometry" />
        </mxCell>
        <mxCell id="fO0kzI02oXGOi7vqgEmv-59" value="temp1 = a[i]&lt;br&gt;temp2 = a[N-1-i]&lt;br&gt;a[i] = temp2&lt;br&gt;a[N-1-i] = temp1" style="whiteSpace=wrap;html=1;" vertex="1" parent="1">
          <mxGeometry x="140" y="1020" width="120" height="70" as="geometry" />
        </mxCell>
        <mxCell id="fO0kzI02oXGOi7vqgEmv-60" value="i = i + 1" style="whiteSpace=wrap;html=1;" vertex="1" parent="1">
          <mxGeometry x="140" y="1110" width="120" height="30" as="geometry" />
        </mxCell>
        <mxCell id="fO0kzI02oXGOi7vqgEmv-61" value="" style="edgeStyle=orthogonalEdgeStyle;rounded=0;orthogonalLoop=1;jettySize=auto;html=1;entryX=0;entryY=0.5;entryDx=0;entryDy=0;exitX=0;exitY=0.25;exitDx=0;exitDy=0;" edge="1" parent="1" source="fO0kzI02oXGOi7vqgEmv-60" target="fO0kzI02oXGOi7vqgEmv-50">
          <mxGeometry relative="1" as="geometry">
            <mxPoint x="140" y="1120" as="sourcePoint" />
            <Array as="points">
              <mxPoint x="140" y="1120" />
              <mxPoint x="110" y="1120" />
              <mxPoint x="110" y="950" />
            </Array>
          </mxGeometry>
        </mxCell>
        <mxCell id="fO0kzI02oXGOi7vqgEmv-76" value="" style="edgeStyle=orthogonalEdgeStyle;rounded=0;orthogonalLoop=1;jettySize=auto;html=1;" edge="1" parent="1" source="fO0kzI02oXGOi7vqgEmv-77" target="fO0kzI02oXGOi7vqgEmv-80">
          <mxGeometry relative="1" as="geometry" />
        </mxCell>
        <mxCell id="fO0kzI02oXGOi7vqgEmv-77" value="Старт" style="ellipse;whiteSpace=wrap;html=1;" vertex="1" parent="1">
          <mxGeometry x="145.03" y="1240" width="90" height="30" as="geometry" />
        </mxCell>
        <mxCell id="fO0kzI02oXGOi7vqgEmv-78" value="&lt;font style=&quot;font-size: 20px;&quot;&gt;Задача №3. Найти сумму элементов массива, лежащих между максимальным и минимальным по значению элементами&lt;/font&gt;" style="text;html=1;strokeColor=none;fillColor=none;align=center;verticalAlign=middle;whiteSpace=wrap;rounded=0;" vertex="1" parent="1">
          <mxGeometry x="330" y="1280" width="530" height="30" as="geometry" />
        </mxCell>
        <mxCell id="fO0kzI02oXGOi7vqgEmv-79" value="" style="edgeStyle=orthogonalEdgeStyle;rounded=0;orthogonalLoop=1;jettySize=auto;html=1;" edge="1" parent="1" source="fO0kzI02oXGOi7vqgEmv-80" target="fO0kzI02oXGOi7vqgEmv-84">
          <mxGeometry relative="1" as="geometry" />
        </mxCell>
        <mxCell id="fO0kzI02oXGOi7vqgEmv-80" value="a = [5, 6, 1, 3, 8, 12, 4]&lt;br&gt;N = len(a)&lt;br&gt;i = 0&lt;br&gt;j = 0&lt;br&gt;max = 0&lt;br&gt;min = 0" style="shape=parallelogram;perimeter=parallelogramPerimeter;whiteSpace=wrap;html=1;fixedSize=1;" vertex="1" parent="1">
          <mxGeometry x="110.06" y="1290" width="159.94" height="90" as="geometry" />
        </mxCell>
        <mxCell id="fO0kzI02oXGOi7vqgEmv-81" value="YES" style="edgeStyle=orthogonalEdgeStyle;rounded=0;orthogonalLoop=1;jettySize=auto;html=1;" edge="1" parent="1" source="fO0kzI02oXGOi7vqgEmv-84" target="fO0kzI02oXGOi7vqgEmv-89">
          <mxGeometry x="0.2" y="20" relative="1" as="geometry">
            <mxPoint as="offset" />
          </mxGeometry>
        </mxCell>
        <mxCell id="fO0kzI02oXGOi7vqgEmv-82" value="" style="edgeStyle=orthogonalEdgeStyle;rounded=0;orthogonalLoop=1;jettySize=auto;html=1;entryX=0.5;entryY=0;entryDx=0;entryDy=0;" edge="1" parent="1" source="fO0kzI02oXGOi7vqgEmv-84" target="fO0kzI02oXGOi7vqgEmv-99">
          <mxGeometry relative="1" as="geometry">
            <mxPoint x="289.93999999999994" y="1440" as="targetPoint" />
          </mxGeometry>
        </mxCell>
        <mxCell id="fO0kzI02oXGOi7vqgEmv-83" value="NO" style="edgeLabel;html=1;align=center;verticalAlign=middle;resizable=0;points=[];" vertex="1" connectable="0" parent="fO0kzI02oXGOi7vqgEmv-82">
          <mxGeometry x="0.0333" y="1" relative="1" as="geometry">
            <mxPoint as="offset" />
          </mxGeometry>
        </mxCell>
        <mxCell id="fO0kzI02oXGOi7vqgEmv-84" value="i &amp;lt; N" style="rhombus;whiteSpace=wrap;html=1;" vertex="1" parent="1">
          <mxGeometry x="149.94" y="1400" width="80" height="80" as="geometry" />
        </mxCell>
        <mxCell id="fO0kzI02oXGOi7vqgEmv-85" value="" style="edgeStyle=orthogonalEdgeStyle;rounded=0;orthogonalLoop=1;jettySize=auto;html=1;" edge="1" parent="1" source="fO0kzI02oXGOi7vqgEmv-89" target="fO0kzI02oXGOi7vqgEmv-93">
          <mxGeometry relative="1" as="geometry" />
        </mxCell>
        <mxCell id="fO0kzI02oXGOi7vqgEmv-86" value="YES" style="edgeLabel;html=1;align=center;verticalAlign=middle;resizable=0;points=[];" vertex="1" connectable="0" parent="fO0kzI02oXGOi7vqgEmv-85">
          <mxGeometry x="0.2286" y="-1" relative="1" as="geometry">
            <mxPoint as="offset" />
          </mxGeometry>
        </mxCell>
        <mxCell id="fO0kzI02oXGOi7vqgEmv-87" value="" style="edgeStyle=orthogonalEdgeStyle;rounded=0;orthogonalLoop=1;jettySize=auto;html=1;exitX=1;exitY=0.5;exitDx=0;exitDy=0;" edge="1" parent="1" source="fO0kzI02oXGOi7vqgEmv-89" target="fO0kzI02oXGOi7vqgEmv-94">
          <mxGeometry relative="1" as="geometry">
            <mxPoint x="242.44" y="1540" as="sourcePoint" />
            <mxPoint x="259.94" y="1680" as="targetPoint" />
            <Array as="points">
              <mxPoint x="299.94" y="1550" />
              <mxPoint x="299.94" y="1680" />
            </Array>
          </mxGeometry>
        </mxCell>
        <mxCell id="fO0kzI02oXGOi7vqgEmv-88" value="NO" style="edgeLabel;html=1;align=center;verticalAlign=middle;resizable=0;points=[];" vertex="1" connectable="0" parent="fO0kzI02oXGOi7vqgEmv-87">
          <mxGeometry x="-0.4276" y="-2" relative="1" as="geometry">
            <mxPoint as="offset" />
          </mxGeometry>
        </mxCell>
        <mxCell id="fO0kzI02oXGOi7vqgEmv-89" value="a[i] &amp;gt; a[max]" style="rhombus;whiteSpace=wrap;html=1;" vertex="1" parent="1">
          <mxGeometry x="134.94" y="1510" width="110" height="80" as="geometry" />
        </mxCell>
        <mxCell id="fO0kzI02oXGOi7vqgEmv-92" value="" style="edgeStyle=orthogonalEdgeStyle;rounded=0;orthogonalLoop=1;jettySize=auto;html=1;" edge="1" parent="1" source="fO0kzI02oXGOi7vqgEmv-93" target="fO0kzI02oXGOi7vqgEmv-94">
          <mxGeometry relative="1" as="geometry" />
        </mxCell>
        <mxCell id="fO0kzI02oXGOi7vqgEmv-93" value="max = i" style="whiteSpace=wrap;html=1;" vertex="1" parent="1">
          <mxGeometry x="129.94" y="1620" width="120" height="30" as="geometry" />
        </mxCell>
        <mxCell id="fO0kzI02oXGOi7vqgEmv-94" value="i = i + 1" style="whiteSpace=wrap;html=1;" vertex="1" parent="1">
          <mxGeometry x="129.94" y="1670" width="120" height="30" as="geometry" />
        </mxCell>
        <mxCell id="fO0kzI02oXGOi7vqgEmv-95" value="" style="edgeStyle=orthogonalEdgeStyle;rounded=0;orthogonalLoop=1;jettySize=auto;html=1;exitX=0;exitY=0.5;exitDx=0;exitDy=0;entryX=0;entryY=0.5;entryDx=0;entryDy=0;" edge="1" parent="1" source="fO0kzI02oXGOi7vqgEmv-94" target="fO0kzI02oXGOi7vqgEmv-84">
          <mxGeometry relative="1" as="geometry">
            <mxPoint x="69.94" y="1750" as="sourcePoint" />
            <Array as="points">
              <mxPoint x="99.94" y="1685" />
              <mxPoint x="99.94" y="1440" />
            </Array>
          </mxGeometry>
        </mxCell>
        <mxCell id="fO0kzI02oXGOi7vqgEmv-96" value="YES" style="edgeStyle=orthogonalEdgeStyle;rounded=0;orthogonalLoop=1;jettySize=auto;html=1;" edge="1" parent="1" source="fO0kzI02oXGOi7vqgEmv-99" target="fO0kzI02oXGOi7vqgEmv-104">
          <mxGeometry x="0.2" y="20" relative="1" as="geometry">
            <mxPoint as="offset" />
          </mxGeometry>
        </mxCell>
        <mxCell id="fO0kzI02oXGOi7vqgEmv-97" value="" style="edgeStyle=orthogonalEdgeStyle;rounded=0;orthogonalLoop=1;jettySize=auto;html=1;entryX=0;entryY=0.5;entryDx=0;entryDy=0;" edge="1" parent="1" source="fO0kzI02oXGOi7vqgEmv-99" target="fO0kzI02oXGOi7vqgEmv-110">
          <mxGeometry relative="1" as="geometry">
            <mxPoint x="550" y="1510" as="targetPoint" />
            <Array as="points" />
          </mxGeometry>
        </mxCell>
        <mxCell id="fO0kzI02oXGOi7vqgEmv-98" value="NO" style="edgeLabel;html=1;align=center;verticalAlign=middle;resizable=0;points=[];" vertex="1" connectable="0" parent="fO0kzI02oXGOi7vqgEmv-97">
          <mxGeometry x="0.0333" y="1" relative="1" as="geometry">
            <mxPoint as="offset" />
          </mxGeometry>
        </mxCell>
        <mxCell id="fO0kzI02oXGOi7vqgEmv-99" value="j &amp;lt; N" style="rhombus;whiteSpace=wrap;html=1;" vertex="1" parent="1">
          <mxGeometry x="385" y="1460" width="80" height="80" as="geometry" />
        </mxCell>
        <mxCell id="fO0kzI02oXGOi7vqgEmv-100" value="" style="edgeStyle=orthogonalEdgeStyle;rounded=0;orthogonalLoop=1;jettySize=auto;html=1;" edge="1" parent="1" source="fO0kzI02oXGOi7vqgEmv-104" target="fO0kzI02oXGOi7vqgEmv-107">
          <mxGeometry relative="1" as="geometry" />
        </mxCell>
        <mxCell id="fO0kzI02oXGOi7vqgEmv-101" value="YES" style="edgeLabel;html=1;align=center;verticalAlign=middle;resizable=0;points=[];" vertex="1" connectable="0" parent="fO0kzI02oXGOi7vqgEmv-100">
          <mxGeometry x="0.2286" y="-1" relative="1" as="geometry">
            <mxPoint as="offset" />
          </mxGeometry>
        </mxCell>
        <mxCell id="fO0kzI02oXGOi7vqgEmv-102" value="" style="edgeStyle=orthogonalEdgeStyle;rounded=0;orthogonalLoop=1;jettySize=auto;html=1;exitX=1;exitY=0.5;exitDx=0;exitDy=0;" edge="1" parent="1" source="fO0kzI02oXGOi7vqgEmv-104" target="fO0kzI02oXGOi7vqgEmv-108">
          <mxGeometry relative="1" as="geometry">
            <mxPoint x="477.50000000000006" y="1585" as="sourcePoint" />
            <mxPoint x="495.00000000000006" y="1725" as="targetPoint" />
            <Array as="points">
              <mxPoint x="535" y="1595" />
              <mxPoint x="535" y="1725" />
            </Array>
          </mxGeometry>
        </mxCell>
        <mxCell id="fO0kzI02oXGOi7vqgEmv-103" value="NO" style="edgeLabel;html=1;align=center;verticalAlign=middle;resizable=0;points=[];" vertex="1" connectable="0" parent="fO0kzI02oXGOi7vqgEmv-102">
          <mxGeometry x="-0.4276" y="-2" relative="1" as="geometry">
            <mxPoint as="offset" />
          </mxGeometry>
        </mxCell>
        <mxCell id="fO0kzI02oXGOi7vqgEmv-104" value="a[j] &amp;lt; a[min]" style="rhombus;whiteSpace=wrap;html=1;" vertex="1" parent="1">
          <mxGeometry x="370" y="1555" width="110" height="80" as="geometry" />
        </mxCell>
        <mxCell id="fO0kzI02oXGOi7vqgEmv-106" value="" style="edgeStyle=orthogonalEdgeStyle;rounded=0;orthogonalLoop=1;jettySize=auto;html=1;" edge="1" parent="1" source="fO0kzI02oXGOi7vqgEmv-107" target="fO0kzI02oXGOi7vqgEmv-108">
          <mxGeometry relative="1" as="geometry" />
        </mxCell>
        <mxCell id="fO0kzI02oXGOi7vqgEmv-107" value="min = j" style="whiteSpace=wrap;html=1;" vertex="1" parent="1">
          <mxGeometry x="365" y="1665" width="120" height="30" as="geometry" />
        </mxCell>
        <mxCell id="fO0kzI02oXGOi7vqgEmv-108" value="j = j + 1" style="whiteSpace=wrap;html=1;" vertex="1" parent="1">
          <mxGeometry x="365" y="1715" width="120" height="30" as="geometry" />
        </mxCell>
        <mxCell id="fO0kzI02oXGOi7vqgEmv-109" value="" style="edgeStyle=orthogonalEdgeStyle;rounded=0;orthogonalLoop=1;jettySize=auto;html=1;exitX=0;exitY=0.5;exitDx=0;exitDy=0;entryX=0;entryY=0.5;entryDx=0;entryDy=0;" edge="1" parent="1" source="fO0kzI02oXGOi7vqgEmv-108" target="fO0kzI02oXGOi7vqgEmv-99">
          <mxGeometry relative="1" as="geometry">
            <mxPoint x="305" y="1795" as="sourcePoint" />
            <Array as="points">
              <mxPoint x="335" y="1730" />
              <mxPoint x="335" y="1500" />
            </Array>
          </mxGeometry>
        </mxCell>
        <mxCell id="fO0kzI02oXGOi7vqgEmv-113" value="" style="edgeStyle=orthogonalEdgeStyle;rounded=0;orthogonalLoop=1;jettySize=auto;html=1;entryX=0.5;entryY=0;entryDx=0;entryDy=0;" edge="1" parent="1" source="fO0kzI02oXGOi7vqgEmv-110" target="fO0kzI02oXGOi7vqgEmv-112">
          <mxGeometry relative="1" as="geometry" />
        </mxCell>
        <mxCell id="fO0kzI02oXGOi7vqgEmv-110" value="sum = 0&lt;br&gt;k = 0" style="rounded=0;whiteSpace=wrap;html=1;" vertex="1" parent="1">
          <mxGeometry x="580" y="1485" width="70" height="30" as="geometry" />
        </mxCell>
        <mxCell id="fO0kzI02oXGOi7vqgEmv-117" value="" style="edgeStyle=orthogonalEdgeStyle;rounded=0;orthogonalLoop=1;jettySize=auto;html=1;exitX=0;exitY=0.5;exitDx=0;exitDy=0;entryX=0.5;entryY=0;entryDx=0;entryDy=0;" edge="1" parent="1" source="fO0kzI02oXGOi7vqgEmv-112" target="fO0kzI02oXGOi7vqgEmv-119">
          <mxGeometry relative="1" as="geometry">
            <mxPoint x="640" y="1605" as="targetPoint" />
          </mxGeometry>
        </mxCell>
        <mxCell id="fO0kzI02oXGOi7vqgEmv-118" value="YES" style="edgeLabel;html=1;align=center;verticalAlign=middle;resizable=0;points=[];" vertex="1" connectable="0" parent="fO0kzI02oXGOi7vqgEmv-117">
          <mxGeometry x="-0.1111" relative="1" as="geometry">
            <mxPoint as="offset" />
          </mxGeometry>
        </mxCell>
        <mxCell id="fO0kzI02oXGOi7vqgEmv-149" value="" style="edgeStyle=orthogonalEdgeStyle;rounded=0;orthogonalLoop=1;jettySize=auto;html=1;entryX=0.5;entryY=0;entryDx=0;entryDy=0;" edge="1" parent="1" source="fO0kzI02oXGOi7vqgEmv-112" target="fO0kzI02oXGOi7vqgEmv-140">
          <mxGeometry relative="1" as="geometry">
            <mxPoint x="910" y="1605" as="targetPoint" />
          </mxGeometry>
        </mxCell>
        <mxCell id="fO0kzI02oXGOi7vqgEmv-150" value="NO" style="edgeLabel;html=1;align=center;verticalAlign=middle;resizable=0;points=[];" vertex="1" connectable="0" parent="fO0kzI02oXGOi7vqgEmv-149">
          <mxGeometry x="-0.2985" y="3" relative="1" as="geometry">
            <mxPoint as="offset" />
          </mxGeometry>
        </mxCell>
        <mxCell id="fO0kzI02oXGOi7vqgEmv-112" value="max &amp;gt; min" style="rhombus;whiteSpace=wrap;html=1;" vertex="1" parent="1">
          <mxGeometry x="670" y="1530" width="80" height="80" as="geometry" />
        </mxCell>
        <mxCell id="fO0kzI02oXGOi7vqgEmv-122" value="" style="edgeStyle=orthogonalEdgeStyle;rounded=0;orthogonalLoop=1;jettySize=auto;html=1;" edge="1" parent="1" source="fO0kzI02oXGOi7vqgEmv-119" target="fO0kzI02oXGOi7vqgEmv-121">
          <mxGeometry relative="1" as="geometry" />
        </mxCell>
        <mxCell id="fO0kzI02oXGOi7vqgEmv-125" value="YES" style="edgeLabel;html=1;align=center;verticalAlign=middle;resizable=0;points=[];" vertex="1" connectable="0" parent="fO0kzI02oXGOi7vqgEmv-122">
          <mxGeometry x="0.3117" relative="1" as="geometry">
            <mxPoint as="offset" />
          </mxGeometry>
        </mxCell>
        <mxCell id="fO0kzI02oXGOi7vqgEmv-130" value="" style="edgeStyle=orthogonalEdgeStyle;rounded=0;orthogonalLoop=1;jettySize=auto;html=1;exitX=1;exitY=0.5;exitDx=0;exitDy=0;" edge="1" parent="1" source="fO0kzI02oXGOi7vqgEmv-119" target="fO0kzI02oXGOi7vqgEmv-129">
          <mxGeometry relative="1" as="geometry" />
        </mxCell>
        <mxCell id="fO0kzI02oXGOi7vqgEmv-131" value="NO" style="edgeLabel;html=1;align=center;verticalAlign=middle;resizable=0;points=[];" vertex="1" connectable="0" parent="fO0kzI02oXGOi7vqgEmv-130">
          <mxGeometry x="-0.4182" relative="1" as="geometry">
            <mxPoint as="offset" />
          </mxGeometry>
        </mxCell>
        <mxCell id="fO0kzI02oXGOi7vqgEmv-119" value="min + k &amp;gt;max" style="rhombus;whiteSpace=wrap;html=1;" vertex="1" parent="1">
          <mxGeometry x="590" y="1610" width="100" height="57.5" as="geometry" />
        </mxCell>
        <mxCell id="fO0kzI02oXGOi7vqgEmv-124" value="" style="edgeStyle=orthogonalEdgeStyle;rounded=0;orthogonalLoop=1;jettySize=auto;html=1;" edge="1" parent="1" source="fO0kzI02oXGOi7vqgEmv-121" target="fO0kzI02oXGOi7vqgEmv-123">
          <mxGeometry relative="1" as="geometry" />
        </mxCell>
        <mxCell id="fO0kzI02oXGOi7vqgEmv-121" value="sum = sum + a[k + min]" style="whiteSpace=wrap;html=1;" vertex="1" parent="1">
          <mxGeometry x="580" y="1697.5" width="120" height="35" as="geometry" />
        </mxCell>
        <mxCell id="fO0kzI02oXGOi7vqgEmv-123" value="k = k + 1" style="whiteSpace=wrap;html=1;" vertex="1" parent="1">
          <mxGeometry x="580" y="1752.5" width="120" height="30" as="geometry" />
        </mxCell>
        <mxCell id="fO0kzI02oXGOi7vqgEmv-128" value="" style="edgeStyle=orthogonalEdgeStyle;rounded=0;orthogonalLoop=1;jettySize=auto;html=1;exitX=0;exitY=0.5;exitDx=0;exitDy=0;" edge="1" parent="1" source="fO0kzI02oXGOi7vqgEmv-123" target="fO0kzI02oXGOi7vqgEmv-119">
          <mxGeometry relative="1" as="geometry">
            <mxPoint x="560" y="1638.75" as="sourcePoint" />
            <Array as="points">
              <mxPoint x="560" y="1767.5" />
              <mxPoint x="560" y="1638.5" />
            </Array>
          </mxGeometry>
        </mxCell>
        <mxCell id="fO0kzI02oXGOi7vqgEmv-133" value="" style="edgeStyle=orthogonalEdgeStyle;rounded=0;orthogonalLoop=1;jettySize=auto;html=1;" edge="1" parent="1" source="fO0kzI02oXGOi7vqgEmv-129" target="fO0kzI02oXGOi7vqgEmv-132">
          <mxGeometry relative="1" as="geometry" />
        </mxCell>
        <mxCell id="fO0kzI02oXGOi7vqgEmv-129" value="sum = sum + a[max]" style="whiteSpace=wrap;html=1;" vertex="1" parent="1">
          <mxGeometry x="680" y="1652.5" width="120" height="25" as="geometry" />
        </mxCell>
        <mxCell id="fO0kzI02oXGOi7vqgEmv-132" value="sum" style="shape=document;whiteSpace=wrap;html=1;boundedLbl=1;" vertex="1" parent="1">
          <mxGeometry x="720" y="1712.5" width="60" height="32.5" as="geometry" />
        </mxCell>
        <mxCell id="fO0kzI02oXGOi7vqgEmv-136" value="" style="edgeStyle=orthogonalEdgeStyle;rounded=0;orthogonalLoop=1;jettySize=auto;html=1;" edge="1" parent="1" source="fO0kzI02oXGOi7vqgEmv-140" target="fO0kzI02oXGOi7vqgEmv-142">
          <mxGeometry relative="1" as="geometry" />
        </mxCell>
        <mxCell id="fO0kzI02oXGOi7vqgEmv-137" value="YES" style="edgeLabel;html=1;align=center;verticalAlign=middle;resizable=0;points=[];" vertex="1" connectable="0" parent="fO0kzI02oXGOi7vqgEmv-136">
          <mxGeometry x="0.3117" relative="1" as="geometry">
            <mxPoint as="offset" />
          </mxGeometry>
        </mxCell>
        <mxCell id="fO0kzI02oXGOi7vqgEmv-138" value="" style="edgeStyle=orthogonalEdgeStyle;rounded=0;orthogonalLoop=1;jettySize=auto;html=1;exitX=1;exitY=0.5;exitDx=0;exitDy=0;" edge="1" parent="1" source="fO0kzI02oXGOi7vqgEmv-140" target="fO0kzI02oXGOi7vqgEmv-146">
          <mxGeometry relative="1" as="geometry" />
        </mxCell>
        <mxCell id="fO0kzI02oXGOi7vqgEmv-139" value="NO" style="edgeLabel;html=1;align=center;verticalAlign=middle;resizable=0;points=[];" vertex="1" connectable="0" parent="fO0kzI02oXGOi7vqgEmv-138">
          <mxGeometry x="-0.4182" relative="1" as="geometry">
            <mxPoint as="offset" />
          </mxGeometry>
        </mxCell>
        <mxCell id="fO0kzI02oXGOi7vqgEmv-140" value="max + k &amp;gt; min" style="rhombus;whiteSpace=wrap;html=1;" vertex="1" parent="1">
          <mxGeometry x="860" y="1610" width="100" height="57.5" as="geometry" />
        </mxCell>
        <mxCell id="fO0kzI02oXGOi7vqgEmv-141" value="" style="edgeStyle=orthogonalEdgeStyle;rounded=0;orthogonalLoop=1;jettySize=auto;html=1;" edge="1" parent="1" source="fO0kzI02oXGOi7vqgEmv-142" target="fO0kzI02oXGOi7vqgEmv-143">
          <mxGeometry relative="1" as="geometry" />
        </mxCell>
        <mxCell id="fO0kzI02oXGOi7vqgEmv-142" value="sum = sum + a[k + max]" style="whiteSpace=wrap;html=1;" vertex="1" parent="1">
          <mxGeometry x="850" y="1697.5" width="120" height="35" as="geometry" />
        </mxCell>
        <mxCell id="fO0kzI02oXGOi7vqgEmv-143" value="k = k + 1" style="whiteSpace=wrap;html=1;" vertex="1" parent="1">
          <mxGeometry x="850" y="1752.5" width="120" height="30" as="geometry" />
        </mxCell>
        <mxCell id="fO0kzI02oXGOi7vqgEmv-144" value="" style="edgeStyle=orthogonalEdgeStyle;rounded=0;orthogonalLoop=1;jettySize=auto;html=1;exitX=0;exitY=0.5;exitDx=0;exitDy=0;" edge="1" parent="1" source="fO0kzI02oXGOi7vqgEmv-143" target="fO0kzI02oXGOi7vqgEmv-140">
          <mxGeometry relative="1" as="geometry">
            <mxPoint x="830" y="1638.75" as="sourcePoint" />
            <Array as="points">
              <mxPoint x="830" y="1767.5" />
              <mxPoint x="830" y="1638.5" />
            </Array>
          </mxGeometry>
        </mxCell>
        <mxCell id="fO0kzI02oXGOi7vqgEmv-145" value="" style="edgeStyle=orthogonalEdgeStyle;rounded=0;orthogonalLoop=1;jettySize=auto;html=1;" edge="1" parent="1" source="fO0kzI02oXGOi7vqgEmv-146" target="fO0kzI02oXGOi7vqgEmv-147">
          <mxGeometry relative="1" as="geometry" />
        </mxCell>
        <mxCell id="fO0kzI02oXGOi7vqgEmv-146" value="sum = sum + a[min]" style="whiteSpace=wrap;html=1;" vertex="1" parent="1">
          <mxGeometry x="950" y="1652.5" width="120" height="25" as="geometry" />
        </mxCell>
        <mxCell id="fO0kzI02oXGOi7vqgEmv-147" value="sum" style="shape=document;whiteSpace=wrap;html=1;boundedLbl=1;" vertex="1" parent="1">
          <mxGeometry x="990" y="1712.5" width="60" height="32.5" as="geometry" />
        </mxCell>
        <mxCell id="fO0kzI02oXGOi7vqgEmv-151" value="&lt;font style=&quot;font-size: 20px;&quot;&gt;Задача №4. Найти среднее арифметическое среди всех элементов массива&lt;/font&gt;" style="text;html=1;strokeColor=none;fillColor=none;align=center;verticalAlign=middle;whiteSpace=wrap;rounded=0;" vertex="1" parent="1">
          <mxGeometry x="370" y="1850" width="530" height="30" as="geometry" />
        </mxCell>
        <mxCell id="fO0kzI02oXGOi7vqgEmv-152" value="" style="edgeStyle=orthogonalEdgeStyle;rounded=0;orthogonalLoop=1;jettySize=auto;html=1;" edge="1" parent="1" source="fO0kzI02oXGOi7vqgEmv-153" target="fO0kzI02oXGOi7vqgEmv-154">
          <mxGeometry relative="1" as="geometry" />
        </mxCell>
        <mxCell id="fO0kzI02oXGOi7vqgEmv-153" value="Старт" style="ellipse;whiteSpace=wrap;html=1;" vertex="1" parent="1">
          <mxGeometry x="235.03" y="1840" width="90" height="30" as="geometry" />
        </mxCell>
        <mxCell id="fO0kzI02oXGOi7vqgEmv-154" value="a = [5, 6, 1, 3, 8, 12, 4]&lt;br&gt;N = len(a)&lt;br&gt;i = 0&lt;br&gt;j = 0&lt;br&gt;max = 0&lt;br&gt;min = 0" style="shape=parallelogram;perimeter=parallelogramPerimeter;whiteSpace=wrap;html=1;fixedSize=1;" vertex="1" parent="1">
          <mxGeometry x="200.06" y="1890" width="159.94" height="90" as="geometry" />
        </mxCell>
      </root>
    </mxGraphModel>
  </diagram>
</mxfile>
